# xmcd CD database file
#
# Track frame offsets:
#	150
#	24900
#	36900
#	66930
#	83130
#	117797
#	134122
#	163521
#	187019
#	202221
#	232971
#	255269
#	274745
#
# Disc length: 3902 seconds
#
# Revision: 0
# Processed by: cddbd v1.5.2PL0 Copyright (c) Steve Scherf et al.
# Submitted via: CDex 1.51
#
DISCID=b50f3c0d
DTITLE=Artisti vari - NANS 191
DYEAR=2009
DGENRE=New Age
TTITLE0=Danilo Rea and Martux_M - Rothko
TTITLE1=Mauro Galluccio - Goccia di rugiada
TTITLE2=Rosa - Antara mandire
TTITLE3=Alquimia - Down by the glenside
TTITLE4=Attmar Liebert - Streetlight
TTITLE5=Alessandra Celletti - Turfan
TTITLE6=Robert Schroeder - Data stream
TTITLE7=Capitanata - A new africa
TTITLE8=Az Samad - Berjalan Bersamamu
TTITLE9=Fragile State - Undercurrent
TTITLE10=Bernward Koch and Pablo - Soft soft
TTITLE11=Jon Diaz - The last dance
TTITLE12=Giuseppe Manca - Nel firmamento
EXTD=YEAR: 2009
EXTT0=
EXTT1=
EXTT2=
EXTT3=
EXTT4=
EXTT5=
EXTT6=
EXTT7=
EXTT8=
EXTT9=
EXTT10=
EXTT11=
EXTT12=
PLAYORDER=
